<svg width="21" height="21" viewBox="0 0 21 21" fill="none" xmlns="http://www.w3.org/2000/svg">
<path d="M17.5879 10.8852H0.430979C0.192906 10.8852 0 10.6922 0 10.4542C0 10.2162 0.192906 10.0232 0.430979 10.0232H17.5046C17.5315 10.0179 17.5594 10.0152 17.5879 10.0152C18.9941 10.0152 20.138 8.8712 20.138 7.46506C20.138 6.05892 18.9941 4.91487 17.5879 4.91487C16.1818 4.91487 15.0378 6.05886 15.0378 7.465C15.0378 7.70302 14.8449 7.89598 14.6068 7.89598C14.3687 7.89598 14.1758 7.70302 14.1758 7.465C14.1758 5.58358 15.7065 4.05292 17.5879 4.05292C19.4693 4.05292 21 5.58358 21 7.465C21 9.31671 19.5174 10.8286 17.6769 10.8759C17.6482 10.882 17.6185 10.8852 17.5879 10.8852Z" fill="#B7B7B7"/>
<path d="M8.75076 7.90007H0.430979C0.192906 7.90007 0 7.7071 0 7.46909C0 7.23107 0.192906 7.03811 0.430979 7.03811H8.66744C8.69439 7.03282 8.72226 7.03006 8.75076 7.03006C10.1569 7.03006 11.3009 5.88607 11.3009 4.47993C11.3009 3.07379 10.1569 1.9298 8.75076 1.9298C7.34457 1.9298 6.20058 3.07379 6.20058 4.47993C6.20058 4.71795 6.00767 4.91091 5.7696 4.91091C5.53152 4.91091 5.33862 4.71795 5.33862 4.47993C5.33862 2.59851 6.86934 1.06784 8.75076 1.06784C10.6322 1.06784 12.1628 2.59851 12.1628 4.47993C12.1628 6.33165 10.6802 7.84358 8.83977 7.89087C8.81104 7.89685 8.78128 7.90007 8.75076 7.90007Z" fill="#B7B7B7"/>
<path d="M14.0319 19.9323C12.1504 19.9323 10.6197 18.4016 10.6197 16.5202C10.6197 16.2821 10.8126 16.0892 11.0507 16.0892C11.2888 16.0892 11.4817 16.2821 11.4817 16.5202C11.4817 17.9263 12.6257 19.0703 14.0319 19.0703C15.438 19.0703 16.582 17.9263 16.582 16.5202C16.582 15.114 15.438 13.97 14.0319 13.97H0.430979C0.192906 13.97 0 13.7771 0 13.539C0 13.301 0.192906 13.1081 0.430979 13.1081H14.0319C15.9133 13.1081 17.444 14.6387 17.444 16.5202C17.444 18.4016 15.9133 19.9323 14.0319 19.9323Z" fill="#B7B7B7"/>
</svg>
